<svg id="Icons_Photo" data-name="Icons/Photo" xmlns="http://www.w3.org/2000/svg" xmlns:xlink="http://www.w3.org/1999/xlink" width="26" height="26" viewBox="0 0 26 26">
  <defs>
    <clipPath id="clip-path">
      <path id="Shape" d="M21,20H3a3,3,0,0,1-3-3V6A3,3,0,0,1,3,3H6.465L8.168.445A1,1,0,0,1,9,0h6a1,1,0,0,1,.832.446L17.536,3H21a3,3,0,0,1,3,3V17A3,3,0,0,1,21,20ZM12,6a5,5,0,1,0,5,5A5.005,5.005,0,0,0,12,6Zm0,8a3,3,0,1,1,3-3A3,3,0,0,1,12,14Z" transform="translate(1 3)" fill="#ee8777"/>
    </clipPath>
  </defs>
  <rect id="Icons_Photo_background" data-name="Icons/Photo background" width="26" height="26" fill="#fff"/>
  <g id="Group_63" data-name="Group 63">
    <path id="Shape-2" data-name="Shape" d="M21,20H3a3,3,0,0,1-3-3V6A3,3,0,0,1,3,3H6.465L8.168.445A1,1,0,0,1,9,0h6a1,1,0,0,1,.832.446L17.536,3H21a3,3,0,0,1,3,3V17A3,3,0,0,1,21,20ZM12,6a5,5,0,1,0,5,5A5.005,5.005,0,0,0,12,6Zm0,8a3,3,0,1,1,3-3A3,3,0,0,1,12,14Z" transform="translate(1 3)" fill="#ee8777"/>
    <g id="Mask_Group_63" data-name="Mask Group 63" clip-path="url(#clip-path)">
      <g id="_Color" data-name="↳ 🎨Color">
        <path id="Color" d="M0,0H26V26H0Z" fill="#ee8777"/>
      </g>
    </g>
  </g>
</svg>
