<svg id="Icons_Plus" data-name="Icons/Plus" xmlns="http://www.w3.org/2000/svg" xmlns:xlink="http://www.w3.org/1999/xlink" width="26" height="26" viewBox="0 0 26 26">
  <defs>
    <clipPath id="clip-path">
      <path id="Shape" d="M7,15.5V10H1.5a1.5,1.5,0,1,1,0-3H7V1.5a1.5,1.5,0,1,1,3,0V7h5.5a1.5,1.5,0,1,1,0,3H10v5.5a1.5,1.5,0,1,1-3,0Z" transform="translate(4.5 4.5)" fill="#ee8777"/>
    </clipPath>
  </defs>
  <rect id="Icons_Plus_background" data-name="Icons/Plus background" width="26" height="26" fill="#fff"/>
  <g id="Group_1" data-name="Group 1">
    <path id="Shape-2" data-name="Shape" d="M7,15.5V10H1.5a1.5,1.5,0,1,1,0-3H7V1.5a1.5,1.5,0,1,1,3,0V7h5.5a1.5,1.5,0,1,1,0,3H10v5.5a1.5,1.5,0,1,1-3,0Z" transform="translate(4.5 4.5)" fill="#ee8777"/>
    <g id="Mask_Group_1" data-name="Mask Group 1" clip-path="url(#clip-path)">
      <g id="_Color" data-name="↳ 🎨Color">
        <path id="Color" d="M0,0H26V26H0Z" fill="#ee8777"/>
      </g>
    </g>
  </g>
</svg>
