<svg id="Icons_Profile" data-name="Icons/Profile" xmlns="http://www.w3.org/2000/svg" xmlns:xlink="http://www.w3.org/1999/xlink" width="26" height="26" viewBox="0 0 26 26">
  <defs>
    <clipPath id="clip-path">
      <path id="Profile" d="M11,22A11,11,0,0,1,3.222,3.222,11,11,0,1,1,18.778,18.778,10.928,10.928,0,0,1,11,22ZM12,3.5a5.021,5.021,0,0,0-1.18.154,3.745,3.745,0,0,0-3.23,1.381c-1.1,1.539-.563,3.8-.371,4.457a2.206,2.206,0,0,0,.463,2.057,6.345,6.345,0,0,1,.81,1.61,2.461,2.461,0,0,1-.379,2.594l-.489.218a15.013,15.013,0,0,0-3.719,2.077,9.993,9.993,0,0,0,14.107.074,11.076,11.076,0,0,0-4.072-2.393c-1.151-.969-.686-2.045.155-3.575.115-.208.247-.448.36-.676a3.28,3.28,0,0,0,.42-2.363c.265-.984.418-3.441-.8-4.761A2.7,2.7,0,0,0,12,3.5Z" transform="translate(2 2)" fill="#8a8a8f"/>
    </clipPath>
  </defs>
  <rect id="Icons_Profile_background" data-name="Icons/Profile background" width="26" height="26" fill="#fff"/>
  <g id="Group_57" data-name="Group 57">
    <path id="Profile-2" data-name="Profile" d="M11,22A11,11,0,0,1,3.222,3.222,11,11,0,1,1,18.778,18.778,10.928,10.928,0,0,1,11,22ZM12,3.5a5.021,5.021,0,0,0-1.18.154,3.745,3.745,0,0,0-3.23,1.381c-1.1,1.539-.563,3.8-.371,4.457a2.206,2.206,0,0,0,.463,2.057,6.345,6.345,0,0,1,.81,1.61,2.461,2.461,0,0,1-.379,2.594l-.489.218a15.013,15.013,0,0,0-3.719,2.077,9.993,9.993,0,0,0,14.107.074,11.076,11.076,0,0,0-4.072-2.393c-1.151-.969-.686-2.045.155-3.575.115-.208.247-.448.36-.676a3.28,3.28,0,0,0,.42-2.363c.265-.984.418-3.441-.8-4.761A2.7,2.7,0,0,0,12,3.5Z" transform="translate(2 2)" fill="#8a8a8f"/>
    <g id="Mask_Group_57" data-name="Mask Group 57" clip-path="url(#clip-path)">
      <g id="_Color" data-name="↳ 🎨Color">
        <path id="Color" d="M0,0H26V26H0Z" fill="#8a8a8f"/>
      </g>
    </g>
  </g>
</svg>
