<svg id="Icons_Settings" data-name="Icons/Settings" xmlns="http://www.w3.org/2000/svg" xmlns:xlink="http://www.w3.org/1999/xlink" width="26" height="26" viewBox="0 0 26 26">
  <defs>
    <clipPath id="clip-path">
      <path id="Shape" d="M12.08,24a3,3,0,0,1-3-3,.7.7,0,0,0-.484-.685.651.651,0,0,0-.264-.056.641.641,0,0,0-.445.178l-.059.059a3,3,0,0,1-4.244,0A3.022,3.022,0,0,1,2.7,18.375a2.982,2.982,0,0,1,.879-2.122l.052-.052a.656.656,0,0,0,.126-.727.648.648,0,0,0-.591-.393H3a3,3,0,0,1,0-6A.7.7,0,0,0,3.686,8.6a.648.648,0,0,0-.122-.709L3.5,7.827A3,3,0,1,1,7.747,3.583l.052.052a.648.648,0,0,0,.716.13,1.058,1.058,0,0,1,.2-.064A.647.647,0,0,0,9,3.17V3a3,3,0,0,1,6,0v.086a.671.671,0,0,0,.668.655.639.639,0,0,0,.445-.178l.059-.059a2.983,2.983,0,0,1,2.123-.88,3.018,3.018,0,0,1,2.121.879,3,3,0,0,1,0,4.244l-.052.052a.646.646,0,0,0-.13.716.986.986,0,0,1,.064.2A.647.647,0,0,0,20.83,9H21a3,3,0,1,1,0,6h-.086a.663.663,0,0,0-.477,1.112l.059.059a2.983,2.983,0,0,1,.88,2.123,3,3,0,0,1-3,3,2.982,2.982,0,0,1-2.122-.879l-.052-.052a.643.643,0,0,0-.453-.185.676.676,0,0,0-.274.059.645.645,0,0,0-.393.59V21A3,3,0,0,1,12.08,24ZM12,8a4,4,0,1,0,4,4A4,4,0,0,0,12,8Z" transform="translate(1 1)" fill="#8a8a8f"/>
    </clipPath>
  </defs>
  <rect id="Icons_Settings_background" data-name="Icons/Settings background" width="26" height="26" fill="#fff"/>
  <g id="Group_64" data-name="Group 64">
    <path id="Shape-2" data-name="Shape" d="M12.08,24a3,3,0,0,1-3-3,.7.7,0,0,0-.484-.685.651.651,0,0,0-.264-.056.641.641,0,0,0-.445.178l-.059.059a3,3,0,0,1-4.244,0A3.022,3.022,0,0,1,2.7,18.375a2.982,2.982,0,0,1,.879-2.122l.052-.052a.656.656,0,0,0,.126-.727.648.648,0,0,0-.591-.393H3a3,3,0,0,1,0-6A.7.7,0,0,0,3.686,8.6a.648.648,0,0,0-.122-.709L3.5,7.827A3,3,0,1,1,7.747,3.583l.052.052a.648.648,0,0,0,.716.13,1.058,1.058,0,0,1,.2-.064A.647.647,0,0,0,9,3.17V3a3,3,0,0,1,6,0v.086a.671.671,0,0,0,.668.655.639.639,0,0,0,.445-.178l.059-.059a2.983,2.983,0,0,1,2.123-.88,3.018,3.018,0,0,1,2.121.879,3,3,0,0,1,0,4.244l-.052.052a.646.646,0,0,0-.13.716.986.986,0,0,1,.064.2A.647.647,0,0,0,20.83,9H21a3,3,0,1,1,0,6h-.086a.663.663,0,0,0-.477,1.112l.059.059a2.983,2.983,0,0,1,.88,2.123,3,3,0,0,1-3,3,2.982,2.982,0,0,1-2.122-.879l-.052-.052a.643.643,0,0,0-.453-.185.676.676,0,0,0-.274.059.645.645,0,0,0-.393.59V21A3,3,0,0,1,12.08,24ZM12,8a4,4,0,1,0,4,4A4,4,0,0,0,12,8Z" transform="translate(1 1)" fill="#8a8a8f"/>
    <g id="Mask_Group_64" data-name="Mask Group 64" clip-path="url(#clip-path)">
      <g id="_Color" data-name="↳ 🎨Color">
        <path id="Color" d="M0,0H26V26H0Z" fill="#8a8a8f"/>
      </g>
    </g>
  </g>
</svg>
