<svg xmlns="http://www.w3.org/2000/svg" xmlns:xlink="http://www.w3.org/1999/xlink" width="21" height="5" viewBox="0 0 21 5">
  <defs>
    <clipPath id="clip-path">
      <path id="Shape" d="M16,2.5A2.5,2.5,0,1,1,18.5,5,2.5,2.5,0,0,1,16,2.5Zm-8,0A2.5,2.5,0,1,1,10.5,5,2.5,2.5,0,0,1,8,2.5Zm-8,0A2.5,2.5,0,1,1,2.5,5,2.5,2.5,0,0,1,0,2.5Z" transform="translate(2.5 10.5)" fill="#c8c7cc"/>
    </clipPath>
  </defs>
  <g id="Group_6" data-name="Group 6" transform="translate(-2.5 -10.5)">
    <path id="Shape-2" data-name="Shape" d="M16,2.5A2.5,2.5,0,1,1,18.5,5,2.5,2.5,0,0,1,16,2.5Zm-8,0A2.5,2.5,0,1,1,10.5,5,2.5,2.5,0,0,1,8,2.5Zm-8,0A2.5,2.5,0,1,1,2.5,5,2.5,2.5,0,0,1,0,2.5Z" transform="translate(2.5 10.5)" fill="#c8c7cc"/>
    <g id="Mask_Group_6" data-name="Mask Group 6" clip-path="url(#clip-path)">
      <g id="_Color" data-name="↳ 🎨Color">
        <path id="Color" d="M0,0H26V26H0Z" fill="#c8c7cc"/>
      </g>
    </g>
  </g>
</svg>
