<svg xmlns="http://www.w3.org/2000/svg" xmlns:xlink="http://www.w3.org/1999/xlink" width="23.999" height="18" viewBox="0 0 23.999 18">
  <defs>
    <clipPath id="clip-path">
      <path id="Combined_Shape" data-name="Combined Shape" d="M12,18c-3.191,0-6.17-1.452-8.854-4.316A20.509,20.509,0,0,1,.895,10.793,14.885,14.885,0,0,1,.105,9.447a1.008,1.008,0,0,1,0-.895A14.889,14.889,0,0,1,.895,7.207,20.509,20.509,0,0,1,3.145,4.316C5.83,1.452,8.809,0,12,0s6.17,1.452,8.855,4.316a20.509,20.509,0,0,1,2.251,2.891,14.859,14.859,0,0,1,.788,1.345,1,1,0,0,1,0,.895,14.859,14.859,0,0,1-.788,1.345,20.509,20.509,0,0,1-2.251,2.891C18.169,16.548,15.19,18,12,18ZM12,5a4,4,0,1,0,4,4A4,4,0,0,0,12,5Z" transform="translate(1 4)" fill="#c8c7cc"/>
    </clipPath>
  </defs>
  <g id="Group_21" data-name="Group 21" transform="translate(-1.001 -4)">
    <path id="Combined_Shape-2" data-name="Combined Shape" d="M12,18c-3.191,0-6.17-1.452-8.854-4.316A20.509,20.509,0,0,1,.895,10.793,14.885,14.885,0,0,1,.105,9.447a1.008,1.008,0,0,1,0-.895A14.889,14.889,0,0,1,.895,7.207,20.509,20.509,0,0,1,3.145,4.316C5.83,1.452,8.809,0,12,0s6.17,1.452,8.855,4.316a20.509,20.509,0,0,1,2.251,2.891,14.859,14.859,0,0,1,.788,1.345,1,1,0,0,1,0,.895,14.859,14.859,0,0,1-.788,1.345,20.509,20.509,0,0,1-2.251,2.891C18.169,16.548,15.19,18,12,18ZM12,5a4,4,0,1,0,4,4A4,4,0,0,0,12,5Z" transform="translate(1 4)" fill="#c8c7cc"/>
    <g id="Mask_Group_21" data-name="Mask Group 21" clip-path="url(#clip-path)">
      <g id="_Color" data-name="↳ 🎨Color">
        <path id="Color" d="M0,0H26V26H0Z" fill="#c8c7cc"/>
      </g>
    </g>
  </g>
</svg>
